<svg width="21" height="24" viewBox="0 0 21 24" fill="none" xmlns="http://www.w3.org/2000/svg">
<path d="M17.278 12.6827C17.2673 10.7162 18.1567 9.23204 19.9571 8.13898C18.9497 6.69765 17.428 5.90465 15.4187 5.74926C13.5166 5.59923 11.4377 6.85839 10.6768 6.85839C9.87309 6.85839 8.0299 5.80284 6.58321 5.80284C3.59338 5.85106 0.416016 8.1872 0.416016 12.9399C0.416016 14.3437 0.673205 15.7939 1.18758 17.2906C1.87342 19.2571 4.34887 24.0794 6.93149 23.999C8.28173 23.9669 9.23548 23.0399 10.9929 23.0399C12.6968 23.0399 13.5809 23.999 15.0865 23.999C17.6906 23.9615 19.9303 19.5786 20.584 17.6068C17.0905 15.9618 17.278 12.7845 17.278 12.6827ZM14.2453 3.88464C15.7081 2.14861 15.5741 0.56796 15.5313 0C14.24 0.0750136 12.745 0.878731 11.8931 1.86998C10.9554 2.93089 10.4035 4.24363 10.5214 5.72247C11.9199 5.82963 13.1951 5.11164 14.2453 3.88464Z" fill="black"/>
</svg>
