
<svg width="142" height="40" viewBox="0 0 142 40" fill="none" xmlns="http://www.w3.org/2000/svg">
<g clip-path="url(#clip0_11_62)">
<path d="M134.61 14.739H117.78V10.522H140.918V6.31526L134.61 0H113.578L107.27 6.31526V18.9458L113.578 25.261H130.408V29.478H107.27V33.6847L113.578 40H134.61L140.918 33.6847V21.0542L134.61 14.739Z" fill="#3160d9"/>
<path d="M104.151 33.6847V21.0542L97.8423 14.739H85.2252V25.261H93.64V29.478H81.0229V10.522H104.151V6.31526L97.8423 0H76.8105L70.502 6.31526V33.6847L76.8105 40H97.8423L104.151 33.6847Z" fill="#3160d9"/>
<path d="M33.8154 33.6847V21.0542L27.5069 14.739H14.8899V25.261H23.3046V29.478H10.6775V10.522H33.8154V6.31526L27.5069 0H6.4752L0.166687 6.31526V33.6847L6.4752 40H27.5069L33.8154 33.6847Z" fill="#3160d9"/>
<path d="M60.0621 0H47.4451L36.9343 14.739V21.0542H49.5513L39.0303 40H49.5513L66.3706 21.0542V14.739H53.7536L60.0621 0Z" fill="#3160d9"/>
</g>
<defs>
<clipPath id="clip0_11_62">
<rect width="141.667" height="40" fill="#3160d9" transform="translate(0.166687)"/>
</clipPath>
</defs>
</svg>
